<?xml version="1.0" standalone="no"?>
<!DOCTYPE svg PUBLIC "-//W3C//DTD SVG 20010904//EN"
 "http://www.w3.org/TR/2001/REC-SVG-20010904/DTD/svg10.dtd">
<svg version="1.0" xmlns="http://www.w3.org/2000/svg"
 width="582.000000pt" height="582.000000pt" viewBox="0 0 582.000000 582.000000"
 preserveAspectRatio="xMidYMid meet">
<metadata>
Created by potrace 1.11, written by Peter Selinger 2001-2013
</metadata>
<g transform="translate(0.000000,582.000000) scale(0.100000,-0.100000)"
fill="#000000" stroke="none">
<path d="M888 4975 c-2 -1 -27 -6 -57 -9 -30 -4 -64 -9 -75 -11 -22 -5 -55
-10 -176 -26 -41 -6 -88 -13 -105 -15 -16 -3 -43 -7 -60 -10 -16 -2 -46 -6
-65 -9 -19 -3 -49 -7 -67 -9 -94 -12 -151 -110 -112 -192 14 -28 88 -86 101
-78 4 2 9 0 12 -5 8 -13 112 -6 218 15 15 3 42 7 60 9 18 3 44 7 58 10 14 2
49 7 78 10 29 3 76 10 104 15 115 22 174 23 207 4 42 -25 55 -58 80 -204 12
-69 26 -145 31 -170 8 -41 62 -347 75 -430 8 -45 14 -79 20 -110 3 -14 7 -38
10 -55 3 -16 7 -43 10 -60 3 -16 10 -55 15 -85 6 -30 12 -66 15 -80 2 -13 7
-42 11 -64 3 -22 7 -43 9 -46 1 -3 6 -27 9 -53 4 -26 11 -71 17 -100 11 -57
78 -447 84 -487 2 -14 6 -36 9 -50 6 -23 18 -92 30 -165 3 -16 8 -41 10 -55 3
-14 8 -41 10 -60 3 -19 8 -46 10 -60 3 -14 15 -79 26 -145 12 -66 23 -131 26
-145 2 -14 18 -101 34 -194 16 -93 31 -170 33 -173 3 -2 99 -6 213 -9 115 -2
306 -6 424 -9 118 -3 316 -7 440 -10 124 -3 324 -7 445 -10 121 -3 326 -7 455
-10 401 -9 656 -15 898 -20 l232 -6 10 26 c5 14 12 37 14 50 3 14 7 28 10 33
3 5 7 19 10 33 4 21 39 144 96 339 10 36 38 130 60 210 23 80 49 168 56 195 8
28 17 59 19 70 3 11 11 43 20 70 20 69 85 297 90 315 2 8 27 96 55 195 105
361 110 384 92 389 -14 4 -191 37 -282 52 -14 3 -49 9 -79 15 -30 6 -64 13
-75 14 -12 2 -73 13 -136 25 -181 33 -216 39 -272 49 -29 5 -64 12 -78 15 -14
3 -41 8 -60 11 -19 2 -45 7 -57 9 -14 3 -23 0 -24 -7 0 -7 -2 -21 -5 -32 -2
-11 -7 -47 -10 -80 -3 -33 -6 -69 -7 -79 -2 -23 -9 -21 243 -66 96 -17 195
-35 220 -40 25 -5 63 -12 85 -16 22 -4 42 -8 45 -9 3 0 26 -4 51 -8 25 -4 59
-10 75 -13 16 -3 34 -7 41 -8 7 -1 15 -5 18 -8 3 -3 -10 -68 -30 -144 -20 -77
-61 -233 -91 -349 -30 -115 -56 -217 -59 -225 -4 -17 -54 -209 -91 -350 -14
-52 -43 -165 -65 -250 -37 -142 -51 -176 -70 -165 -3 3 -50 5 -103 6 l-96 1 4
42 c2 22 13 91 25 151 23 125 31 167 37 210 2 17 6 41 9 55 3 14 8 41 11 60 3
19 7 42 10 51 2 9 7 34 10 55 2 22 6 46 9 54 5 18 15 74 20 115 2 17 6 41 9
55 7 31 24 122 32 175 3 22 16 94 29 160 16 84 20 122 12 127 -6 4 -34 10 -62
14 -27 3 -59 8 -70 11 -11 2 -31 6 -45 9 -14 2 -41 7 -60 10 -19 4 -42 8 -50
9 -19 3 -78 13 -107 19 -14 3 -23 0 -24 -7 0 -7 -2 -19 -4 -27 -2 -8 -6 -32
-10 -54 -4 -21 -9 -48 -11 -60 -3 -11 -7 -39 -10 -61 -3 -22 -8 -47 -10 -55
-3 -8 -8 -31 -10 -50 -2 -19 -7 -46 -10 -60 -3 -14 -8 -38 -10 -55 -2 -16 -6
-41 -9 -55 -5 -23 -17 -94 -30 -165 -2 -16 -7 -40 -9 -51 -6 -30 -16 -92 -22
-133 -2 -18 -6 -37 -9 -41 -3 -4 -7 -25 -10 -46 -3 -22 -7 -48 -9 -59 -2 -11
-7 -40 -11 -65 -4 -25 -9 -52 -10 -60 -1 -8 -6 -35 -10 -60 -4 -25 -9 -54 -12
-65 -2 -11 -7 -38 -10 -60 -12 -86 -4 -82 -165 -79 -79 1 -151 3 -161 3 -18 1
-18 7 0 96 2 11 6 36 9 55 2 19 6 42 9 50 3 8 7 31 9 50 3 19 8 46 11 60 3 14
7 41 10 60 3 20 10 60 15 90 6 30 13 66 15 80 3 14 14 77 25 140 12 63 30 167
41 230 11 63 22 124 23 135 8 45 26 142 31 170 3 17 8 46 11 65 3 19 7 42 9
50 3 8 7 33 10 55 4 22 8 51 11 65 3 14 12 63 20 110 8 47 17 96 20 110 2 14
7 40 10 59 3 18 8 43 10 55 3 11 7 41 10 66 4 25 7 49 8 54 1 10 -36 19 -124
31 -25 4 -61 10 -80 15 -19 4 -42 8 -50 9 -8 0 -37 5 -65 11 -71 15 -105 21
-105 18 0 -2 -9 -50 -20 -108 -12 -58 -23 -121 -26 -140 -6 -39 -20 -122 -29
-160 -3 -14 -7 -41 -10 -60 -3 -19 -7 -48 -10 -65 -5 -26 -16 -89 -31 -172 -2
-13 -6 -35 -9 -50 -2 -16 -7 -41 -11 -56 -3 -16 -7 -38 -9 -50 -1 -12 -7 -49
-13 -82 -6 -33 -14 -76 -17 -95 -3 -19 -10 -53 -14 -75 -5 -22 -9 -47 -9 -55
0 -8 -3 -27 -6 -42 -11 -54 -17 -83 -22 -113 -11 -63 -34 -201 -39 -230 -10
-53 -37 -199 -41 -220 -2 -11 -6 -31 -8 -45 -8 -50 -20 -115 -22 -122 -1 -5
-2 -15 -3 -23 -1 -13 -17 -16 -97 -14 l-95 1 6 62 c4 33 8 81 10 106 3 25 7
68 10 97 9 86 15 145 20 203 3 30 7 74 9 98 3 23 8 68 11 100 7 80 15 161 20
202 2 19 7 67 10 105 4 39 8 81 10 95 2 14 7 62 10 108 3 45 8 92 10 103 2 12
7 60 11 107 3 48 7 94 9 102 2 8 6 53 10 100 3 47 8 96 10 110 2 14 7 54 10
90 6 71 12 130 20 200 6 58 14 139 20 220 4 36 8 70 10 77 6 17 -13 27 -55 28
-37 2 -172 14 -224 20 -139 17 -156 16 -157 -2 0 -10 -2 -25 -4 -35 -1 -9 -6
-54 -10 -100 -4 -45 -9 -94 -10 -108 -2 -14 -6 -50 -9 -80 -3 -30 -8 -82 -11
-115 -3 -33 -8 -80 -11 -105 -2 -25 -7 -70 -9 -100 -3 -30 -7 -77 -10 -105 -3
-27 -8 -75 -11 -105 -2 -30 -7 -75 -10 -100 -3 -25 -7 -69 -9 -98 -2 -29 -6
-72 -9 -95 -3 -23 -8 -67 -11 -97 -2 -30 -8 -80 -11 -110 -3 -30 -7 -75 -9
-100 -2 -25 -6 -74 -10 -110 -3 -36 -8 -83 -10 -105 -2 -22 -7 -62 -10 -90 -3
-27 -7 -77 -10 -110 -3 -33 -8 -76 -10 -95 -5 -42 -15 -145 -21 -215 -3 -27
-6 -61 -8 -75 -1 -14 -4 -34 -4 -45 -2 -18 -9 -20 -78 -20 l-75 0 6 770 c3
423 8 1050 10 1391 l5 622 -220 1 -220 2 -1 -263 c0 -145 -2 -474 -4 -733 -5
-482 -14 -1571 -15 -1705 l0 -75 -46 2 c-50 1 -63 12 -65 53 0 14 -2 32 -4 40
-1 8 -10 60 -20 115 -9 55 -18 111 -21 125 -2 14 -11 68 -19 120 -20 122 -21
127 -40 240 -9 52 -18 107 -21 123 -2 15 -6 39 -9 55 -2 15 -11 70 -20 122 -8
52 -17 106 -20 120 -2 14 -13 81 -25 149 -11 68 -22 135 -25 150 -2 14 -18
109 -34 211 -17 102 -33 197 -36 212 -3 16 -7 40 -9 55 -2 16 -6 44 -10 63
-14 79 -17 97 -22 145 -3 28 -8 53 -11 58 -2 4 -6 24 -8 45 -3 20 -7 48 -10
62 -3 14 -8 45 -11 70 -3 25 -8 47 -9 50 -2 3 -7 33 -10 65 -4 33 -9 62 -10
65 -2 3 -6 26 -9 50 -14 105 -19 128 -38 185 -57 166 -127 239 -265 275 -40
10 -158 21 -165 15z"/>
<path d="M2287 1504 c-1 -2 -18 -6 -36 -9 -82 -14 -179 -90 -216 -170 -44 -93
-40 -204 9 -287 50 -85 106 -128 197 -151 145 -37 292 32 360 169 32 65 34
197 5 259 -39 80 -108 142 -189 171 -38 14 -122 25 -130 18z"/>
<path d="M3870 1500 c-93 -19 -171 -79 -215 -166 -26 -52 -30 -69 -30 -144 0
-72 4 -92 27 -135 34 -64 79 -110 143 -143 68 -36 195 -38 267 -5 53 24 130
98 153 146 110 237 -91 497 -345 447z"/>
</g>
</svg>
